<svg width="100%" viewBox="0 0 680 520" role="img" xmlns="http://www.w3.org/2000/svg">
  <title>Blue Dot hero illustration</title>
  <desc>Two people collaborating over jobs, connected through the Blue Dot platform</desc>

  <!-- Background circles -->
  <circle cx="340" cy="260" r="230" fill="#dbeafe"/>
  <circle cx="340" cy="260" r="205" fill="#bfdbfe"/>
  <circle cx="340" cy="260" r="180" fill="#eff6ff"/>

  <!-- Floating document card left -->
  <rect x="108" y="148" width="88" height="56" rx="10" fill="white" stroke="#bfdbfe" stroke-width="1.5"/>
  <rect x="116" y="158" width="48" height="5" rx="3" fill="#93c5fd"/>
  <rect x="116" y="169" width="64" height="4" rx="2" fill="#dbeafe"/>
  <rect x="116" y="178" width="52" height="4" rx="2" fill="#dbeafe"/>

  <!-- Floating document card right -->
  <rect x="484" y="148" width="88" height="56" rx="10" fill="white" stroke="#bfdbfe" stroke-width="1.5"/>
  <rect x="492" y="158" width="48" height="5" rx="3" fill="#6ee7b7"/>
  <rect x="492" y="169" width="64" height="4" rx="2" fill="#d1fae5"/>
  <rect x="492" y="178" width="40" height="4" rx="2" fill="#d1fae5"/>

  <!-- Bottom stat pill -->
  <rect x="255" y="432" width="170" height="36" rx="18" fill="white" stroke="#bfdbfe" stroke-width="1.5"/>
  <circle cx="278" cy="450" r="8" fill="#3b82f6"/>
  <rect x="292" y="444" width="50" height="5" rx="3" fill="#1d4ed8"/>
  <rect x="292" y="454" width="38" height="4" rx="2" fill="#93c5fd"/>
  <circle cx="395" cy="450" r="6" fill="#10b981"/>
  <rect x="406" y="445" width="12" height="4" rx="2" fill="#6ee7b7"/>

  <!-- Table surface -->
  <ellipse cx="340" cy="348" rx="120" ry="22" fill="#dbeafe"/>
  <rect x="220" y="330" width="240" height="22" rx="6" fill="#bfdbfe"/>

  <!-- Left person body -->
  <ellipse cx="232" cy="390" rx="38" ry="18" fill="#f59e0b"/>
  <rect x="204" y="300" width="56" height="70" rx="16" fill="#f59e0b"/>
  <rect x="227" y="280" width="14" height="24" rx="6" fill="#fde68a"/>
  <circle cx="234" cy="266" r="30" fill="#fde68a"/>
  <ellipse cx="234" cy="244" rx="30" ry="16" fill="#92400e"/>
  <ellipse cx="210" cy="260" rx="10" ry="18" fill="#92400e"/>
  <ellipse cx="258" cy="260" rx="10" ry="18" fill="#92400e"/>
  <circle cx="225" cy="265" r="3.5" fill="#1e293b"/>
  <circle cx="243" cy="265" r="3.5" fill="#1e293b"/>
  <circle cx="226" cy="263" r="1.2" fill="white"/>
  <circle cx="244" cy="263" r="1.2" fill="white"/>
  <path d="M226 274 Q234 280 242 274" fill="none" stroke="#b45309" stroke-width="1.8" stroke-linecap="round"/>
  <path d="M204 320 Q176 330 190 342" fill="none" stroke="#f59e0b" stroke-width="14" stroke-linecap="round"/>
  <path d="M260 320 Q290 330 310 340" fill="none" stroke="#f59e0b" stroke-width="14" stroke-linecap="round"/>
  <rect x="188" y="330" width="64" height="42" rx="6" fill="#1e293b"/>
  <rect x="192" y="334" width="56" height="34" rx="4" fill="#3b82f6"/>
  <rect x="196" y="338" width="32" height="4" rx="2" fill="#bfdbfe"/>
  <rect x="196" y="346" width="44" height="3" rx="2" fill="#93c5fd" opacity="0.7"/>
  <rect x="196" y="353" width="38" height="3" rx="2" fill="#93c5fd" opacity="0.5"/>

  <!-- Right person body -->
  <ellipse cx="448" cy="390" rx="38" ry="18" fill="#10b981"/>
  <rect x="420" y="300" width="56" height="70" rx="16" fill="#10b981"/>
  <rect x="441" y="280" width="14" height="24" rx="6" fill="#fcd34d"/>
  <circle cx="448" cy="266" r="30" fill="#fcd34d"/>
  <ellipse cx="448" cy="242" rx="30" ry="14" fill="#1e293b"/>
  <circle cx="439" cy="265" r="3.5" fill="#1e293b"/>
  <circle cx="457" cy="265" r="3.5" fill="#1e293b"/>
  <circle cx="440" cy="263" r="1.2" fill="white"/>
  <circle cx="458" cy="263" r="1.2" fill="white"/>
  <path d="M440 274 Q448 281 456 274" fill="none" stroke="#d97706" stroke-width="1.8" stroke-linecap="round"/>
  <path d="M420 320 Q390 330 370 340" fill="none" stroke="#10b981" stroke-width="14" stroke-linecap="round"/>
  <path d="M476 320 Q504 330 490 342" fill="none" stroke="#10b981" stroke-width="14" stroke-linecap="round"/>
  <rect x="428" y="318" width="50" height="64" rx="6" fill="#1e293b"/>
  <rect x="432" y="322" width="42" height="56" rx="4" fill="#f0fdf4"/>
  <rect x="436" y="328" width="28" height="4" rx="2" fill="#10b981"/>
  <rect x="436" y="337" width="34" height="3" rx="2" fill="#d1fae5"/>
  <rect x="436" y="344" width="28" height="3" rx="2" fill="#d1fae5"/>
  <rect x="436" y="351" width="34" height="3" rx="2" fill="#d1fae5"/>
  <rect x="436" y="362" width="20" height="14" rx="4" fill="#10b981"/>

  <!-- Center Blue Dot logo -->
  <circle cx="340" cy="320" r="36" fill="white" stroke="#bfdbfe" stroke-width="2"/>
  <circle cx="340" cy="320" r="26" fill="none" stroke="#3b82f6" stroke-width="2.5"/>
  <circle cx="340" cy="320" r="13" fill="#3b82f6"/>
  <circle cx="340" cy="320" r="6" fill="white"/>

  <!-- Connection lines -->
  <line x1="308" y1="338" x2="314" y2="326" stroke="#3b82f6" stroke-width="1.5" stroke-dasharray="4 3" opacity="0.6"/>
  <line x1="372" y1="338" x2="366" y2="326" stroke="#10b981" stroke-width="1.5" stroke-dasharray="4 3" opacity="0.6"/>
  <circle cx="308" cy="339" r="4" fill="#3b82f6" opacity="0.7"/>
  <circle cx="372" cy="339" r="4" fill="#10b981" opacity="0.7"/>

  <!-- Sparkles -->
  <g opacity="0.7">
    <circle cx="168" cy="220" r="5" fill="#fbbf24"/>
    <line x1="168" y1="211" x2="168" y2="229" stroke="#fbbf24" stroke-width="1.5"/>
    <line x1="159" y1="220" x2="177" y2="220" stroke="#fbbf24" stroke-width="1.5"/>
  </g>
  <g opacity="0.6">
    <circle cx="510" cy="210" r="4" fill="#a78bfa"/>
    <line x1="510" y1="203" x2="510" y2="217" stroke="#a78bfa" stroke-width="1.5"/>
    <line x1="503" y1="210" x2="517" y2="210" stroke="#a78bfa" stroke-width="1.5"/>
  </g>
  <circle cx="152" cy="300" r="7" fill="#bfdbfe" stroke="#93c5fd" stroke-width="1.5"/>
  <circle cx="528" cy="310" r="7" fill="#d1fae5" stroke="#6ee7b7" stroke-width="1.5"/>
  <circle cx="340" cy="102" r="5" fill="#fde68a" stroke="#fbbf24" stroke-width="1.5"/>
</svg>
